<?xml version="1.0" standalone="no"?>
<!DOCTYPE svg PUBLIC "-//W3C//DTD SVG 20010904//EN"
 "http://www.w3.org/TR/2001/REC-SVG-20010904/DTD/svg10.dtd">
<svg version="1.0" xmlns="http://www.w3.org/2000/svg"
 width="572.000000pt" height="572.000000pt" viewBox="0 0 572.000000 572.000000"
 preserveAspectRatio="xMidYMid meet">
<metadata>
Created by potrace 1.11, written by Peter Selinger 2001-2013
</metadata>
<g transform="translate(0.000000,572.000000) scale(0.100000,-0.100000)"
fill="#000000" stroke="none">
<path d="M1116 5711 c-3 -4 -26 -8 -51 -7 -25 1 -45 -2 -45 -6 0 -4 -10 -8
-22 -7 -28 0 -94 -8 -128 -15 -14 -3 -41 -9 -60 -13 -19 -4 -38 -8 -42 -9 -5
-1 -12 -2 -18 -3 -7 -1 -10 -950 -10 -2826 l0 -2825 2108 2 2107 3 -1 22 c-1
13 3 23 8 23 5 0 4 9 -2 20 -6 11 -7 20 -2 20 4 0 8 25 7 55 0 30 3 55 7 55 5
0 4 9 -2 20 -8 15 -8 20 2 20 10 0 10 2 -1 9 -7 5 -9 11 -4 14 11 7 11 697 0
715 -5 7 -3 12 4 12 7 0 4 7 -7 16 -10 8 -14 13 -8 10 7 -3 10 15 10 54 -1 33
-3 60 -6 60 -3 0 -6 23 -5 50 0 28 -2 50 -5 50 -3 0 -5 24 -6 53 0 28 -5 61
-9 71 -6 14 -5 17 4 11 10 -6 11 -3 2 13 -6 11 -12 47 -13 81 -2 33 -7 61 -13
61 -5 0 -3 5 5 10 10 6 11 10 3 10 -7 0 -12 10 -12 23 1 34 -7 93 -15 106 -4
6 -4 15 -1 21 3 5 1 19 -5 30 -8 15 -8 20 2 20 10 0 10 2 0 9 -8 4 -13 11 -13
15 1 3 1 7 0 9 0 1 -2 18 -4 37 -7 57 -10 74 -18 87 -4 6 -2 15 3 18 8 5 7 12
-3 23 -8 10 -13 29 -12 45 1 15 -1 27 -5 27 -7 0 -10 19 -10 57 0 12 -5 25
-10 28 -5 3 -7 12 -3 20 3 8 0 15 -7 15 -10 0 -10 3 0 15 9 11 9 15 1 15 -7 0
-9 5 -6 10 3 5 2 10 -4 10 -5 0 -8 8 -6 19 2 10 -2 29 -9 42 -6 13 -11 31 -11
39 0 8 -4 18 -10 22 -6 5 -5 8 4 8 9 0 10 4 4 13 -10 12 -25 58 -28 87 -1 8
-6 26 -12 40 -6 14 -8 31 -6 38 3 6 0 12 -6 12 -6 0 -11 14 -11 31 0 16 -4 28
-8 25 -5 -3 -8 7 -7 22 1 15 -3 30 -9 34 -5 3 -11 16 -13 27 -6 38 -10 56 -20
81 -6 14 -9 28 -6 33 2 4 -1 7 -8 7 -7 0 -9 3 -6 7 4 3 2 12 -4 20 -6 7 -9 13
-6 13 4 0 -2 20 -13 45 -11 25 -17 45 -13 45 3 0 -1 7 -8 17 -8 9 -13 18 -11
20 1 2 -4 18 -11 36 -8 17 -20 53 -27 80 -8 26 -18 47 -22 47 -4 0 -8 7 -8 15
0 9 -9 35 -21 58 -11 23 -22 49 -24 57 -2 8 -14 38 -26 65 -13 28 -22 53 -21
58 1 4 -3 7 -9 7 -5 0 -7 5 -4 10 3 6 1 10 -4 10 -6 0 -11 6 -11 13 0 7 -18
48 -40 92 -22 44 -40 86 -40 93 0 7 -4 10 -10 7 -5 -3 -10 1 -10 9 0 14 -42
97 -61 122 -5 6 -6 14 -2 17 3 4 2 7 -4 7 -6 0 -13 8 -16 18 -4 9 -20 40 -37
67 -17 28 -33 57 -37 65 -4 8 -13 21 -20 28 -7 8 -11 18 -8 23 4 5 2 9 -3 9
-5 0 -17 16 -26 35 -9 19 -21 35 -27 35 -6 0 -7 5 -4 10 3 6 1 10 -4 10 -6 0
-11 7 -11 15 0 8 -4 15 -10 15 -5 0 -10 5 -10 10 0 11 -33 60 -62 94 -10 11
-18 24 -18 28 0 9 -11 24 -42 59 -10 10 -15 19 -10 19 4 0 -2 7 -12 15 -11 8
-17 15 -12 15 4 0 -5 11 -19 25 -14 14 -25 29 -25 33 0 4 -15 23 -33 43 -17
20 -43 51 -57 69 -14 19 -33 40 -42 49 -9 8 -15 18 -12 22 2 4 -5 10 -16 14
-11 3 -20 11 -20 16 0 5 -13 23 -30 39 -16 16 -30 34 -30 40 0 6 -5 8 -10 5
-6 -3 -10 -1 -10 5 0 15 -26 41 -34 33 -3 -4 -6 -1 -6 6 0 13 -136 151 -150
151 -5 0 -12 9 -15 20 -3 11 -11 20 -17 20 -5 0 -31 22 -58 50 -26 27 -50 46
-54 43 -3 -4 -6 -1 -6 5 0 6 -9 14 -20 17 -11 3 -20 14 -20 22 0 9 -3 14 -6
10 -6 -5 -15 2 -77 55 -18 15 -36 28 -41 28 -5 0 -17 10 -27 22 -11 11 -19 17
-19 13 0 -4 -8 2 -19 13 -10 12 -23 22 -30 22 -6 0 -11 5 -11 11 0 5 -4 8 -9
5 -5 -4 -11 -2 -13 2 -1 5 -34 29 -73 53 -90 57 -91 58 -175 102 -104 55 -114
61 -122 72 -4 6 -8 6 -8 2 0 -5 -26 5 -57 22 -60 30 -102 46 -115 43 -5 -1 -8
3 -8 9 0 5 -5 7 -10 4 -6 -3 -13 0 -16 9 -3 8 -14 13 -25 11 -10 -2 -19 0 -19
6 0 5 -8 9 -18 9 -10 0 -22 3 -26 7 -3 4 -14 8 -22 9 -9 1 -23 6 -32 10 -9 4
-26 9 -36 11 -11 2 -25 8 -33 14 -7 6 -13 9 -13 6 0 -4 -18 0 -40 8 -22 8 -40
12 -40 8 0 -3 -6 -1 -12 4 -7 6 -21 9 -30 8 -10 -2 -18 1 -18 7 0 6 -7 8 -15
5 -8 -4 -17 -2 -20 3 -3 5 -14 7 -25 5 -11 -2 -20 -1 -20 4 0 6 -33 11 -87 14
-7 0 -13 3 -13 7 0 3 -12 7 -27 7 -16 1 -50 4 -78 8 -27 4 -60 8 -72 9 -12 1
-25 5 -29 8 -3 4 -17 3 -30 -2 -13 -5 -24 -6 -24 -2 0 13 -283 12 -299 -1 -9
-7 -12 -8 -8 -1 4 7 -7 11 -33 10 -22 0 -40 -4 -40 -8 0 -5 -5 -8 -11 -8 -5 0
-7 5 -4 10 3 6 2 10 -4 10 -5 0 -12 -4 -15 -9z"/>
</g>
</svg>
